<?xml version="1.0" standalone="no"?>
<!DOCTYPE svg PUBLIC "-//W3C//DTD SVG 20010904//EN"
 "http://www.w3.org/TR/2001/REC-SVG-20010904/DTD/svg10.dtd">
<svg version="1.0" xmlns="http://www.w3.org/2000/svg"
 width="271.000000pt" height="219.000000pt" viewBox="0 0 271.000000 219.000000"
 preserveAspectRatio="xMidYMid meet">

<g transform="translate(0.000000,219.000000) scale(0.100000,-0.100000)"
fill="#000000" stroke="none">
<path d="M861 2029 c-49 -15 -137 -107 -151 -158 -7 -28 -10 -169 -8 -444 3
-358 5 -405 20 -433 26 -47 77 -95 128 -118 43 -20 60 -21 440 -21 350 0 399
2 432 17 64 29 106 67 133 121 l25 51 0 405 c0 372 -2 409 -19 446 -21 46 -58
85 -110 118 -36 22 -40 22 -446 24 -248 1 -423 -2 -444 -8z m579 -66 c136 -37
272 -151 330 -276 33 -69 60 -178 60 -242 0 -120 -63 -275 -145 -360 -115
-118 -231 -168 -395 -168 -128 -1 -215 26 -314 97 -82 58 -117 101 -168 203
-77 155 -76 315 4 475 116 231 373 342 628 271z"/>
<path d="M981 1658 c2 -138 34 -513 44 -508 11 5 12 60 5 180 l-5 75 61 3 61
3 7 -32 c3 -17 6 -41 6 -53 0 -19 10 -25 68 -38 37 -9 71 -13 75 -9 5 5 5 28
0 52 -8 43 -8 43 -72 59 -69 17 -79 28 -80 88 -1 17 0 32 2 32 1 0 27 -7 57
-15 79 -21 80 -21 80 30 l0 46 68 -7 c37 -4 69 -8 70 -10 2 -1 6 -21 9 -43 6
-47 12 -49 90 -24 l53 17 0 48 c0 54 -2 55 -74 33 -72 -22 -75 -21 -78 33 l-3
47 -73 3 -73 3 6 -46 c8 -51 10 -50 -67 -34 -69 15 -78 23 -78 74 0 51 -7 55
-96 55 l-64 0 1 -62z m137 -44 c19 -6 22 -13 22 -56 l0 -50 -31 6 c-17 3 -44
6 -59 6 -25 0 -29 5 -35 40 -4 21 -4 44 0 50 7 11 67 13 103 4z"/>
<path d="M1300 1422 c0 -49 0 -49 38 -56 20 -3 54 -6 75 -6 l37 0 0 -44 c0
-25 3 -47 8 -49 4 -3 35 4 70 14 l62 20 0 49 c0 56 -3 58 -65 35 -65 -23 -73
-21 -81 30 l-6 45 -47 0 c-25 0 -56 3 -68 6 -22 6 -23 3 -23 -44z"/>
<path d="M610 400 c0 -215 1 -231 18 -228 15 3 17 18 20 113 2 95 5 112 24
132 48 51 144 54 176 5 13 -20 18 -53 21 -139 3 -103 5 -113 22 -113 17 0 19
9 19 98 0 119 -12 163 -51 196 -42 36 -121 36 -172 2 l-36 -25 -3 92 c-3 78
-6 92 -20 95 -17 3 -18 -13 -18 -228z"/>
<path d="M986 605 c-9 -24 4 -45 29 -45 29 0 38 13 30 40 -8 24 -50 27 -59 5z"/>
<path d="M291 564 c-53 -44 -51 -124 4 -160 14 -9 54 -23 88 -31 91 -21 107
-34 107 -88 0 -37 -5 -47 -25 -61 -36 -24 -102 -28 -160 -10 -38 12 -51 13
-57 3 -14 -22 -9 -26 49 -43 102 -30 196 -4 228 62 21 44 14 91 -19 127 -22
24 -43 33 -144 57 -27 7 -48 20 -59 37 -15 23 -15 28 -2 52 23 41 63 56 118
43 25 -6 53 -13 62 -17 10 -4 19 0 23 10 9 23 -50 45 -123 45 -49 0 -65 -4
-90 -26z"/>
<path d="M1920 530 c-7 -16 -23 -36 -36 -45 -27 -17 -24 -35 6 -35 17 0 19
-11 22 -114 3 -103 5 -117 26 -139 29 -31 73 -40 124 -26 29 7 38 15 36 27 -3
9 -11 15 -19 14 -56 -14 -76 -13 -99 6 -23 19 -25 27 -28 126 l-4 106 66 0
c59 0 66 2 66 20 0 16 -8 19 -62 22 -63 3 -63 3 -66 36 -4 40 -16 41 -32 2z"/>
<path d="M1000 331 c0 -155 1 -161 20 -161 20 0 20 5 18 157 -3 141 -5 158
-20 161 -17 3 -18 -10 -18 -157z"/>
<path d="M1130 331 c0 -154 1 -161 20 -161 19 0 20 7 20 114 l0 114 30 25 c52
45 129 47 166 5 16 -17 20 -41 23 -139 3 -109 5 -119 22 -119 17 0 19 9 19
105 0 167 -31 215 -138 215 -36 0 -59 -7 -86 -25 -45 -30 -44 -30 -48 -3 -2
12 -9 23 -15 26 -10 3 -13 -33 -13 -157z"/>
<path d="M1563 480 c-13 -5 -23 -17 -23 -26 0 -13 7 -14 43 -7 59 11 134 8
152 -7 8 -7 15 -27 15 -44 l0 -32 -97 -12 c-84 -10 -101 -16 -120 -38 -27 -29
-30 -80 -8 -111 32 -46 145 -50 210 -7 22 14 24 14 34 -4 12 -23 35 -34 56
-26 22 9 18 31 -5 37 -17 4 -20 14 -21 74 0 133 -5 156 -39 185 -27 25 -37 28
-103 27 -39 0 -82 -4 -94 -9z m187 -195 c0 -44 -2 -47 -42 -65 -57 -26 -112
-26 -138 0 -58 58 4 104 148 109 32 1 32 0 32 -44z"/>
<path d="M2213 480 c-13 -5 -23 -17 -23 -26 0 -14 6 -15 38 -8 54 13 138 10
156 -6 9 -7 16 -27 16 -45 l0 -32 -72 -7 c-108 -10 -143 -22 -156 -51 -19 -40
-14 -81 11 -111 21 -24 31 -27 84 -27 45 0 71 6 98 22 l37 22 24 -26 c25 -27
32 -29 54 -15 13 8 11 14 -12 35 -27 25 -28 29 -28 130 0 103 0 103 -31 129
-27 23 -39 26 -102 25 -40 0 -82 -4 -94 -9z m187 -195 c0 -40 -3 -46 -31 -60
-16 -9 -52 -19 -78 -22 -41 -5 -52 -2 -70 16 -59 59 0 105 142 110 l37 1 0
-45z"/>
</g>
</svg>
