<svg version="1.1" id="Layer_1" xmlns="http://www.w3.org/2000/svg" xmlns:xlink="http://www.w3.org/1999/xlink" x="0px" y="0px"
	 width="100%" viewBox="0 0 200 200" enable-background="new 0 0 200 200" xml:space="preserve">
<path fill="#1B1A1F" opacity="1.000000" stroke="none" 
	d="
M89.000000,201.000000 
	C59.333336,201.000000 30.166670,201.000000 1.000004,201.000000 
	C1.000003,134.333344 1.000003,67.666679 1.000001,1.000013 
	C67.666656,1.000009 134.333313,1.000009 200.999969,1.000004 
	C200.999985,67.666649 200.999985,134.333298 201.000000,200.999969 
	C163.833328,201.000000 126.666664,201.000000 89.000000,201.000000 
M136.281601,67.757347 
	C132.847275,67.209724 129.412933,66.662102 125.250648,65.798050 
	C102.468620,61.585865 80.730400,64.719292 59.230824,75.209198 
	C56.845879,75.797829 54.485680,76.528778 52.071377,76.948524 
	C44.710941,78.228210 37.499031,79.880531 30.749508,83.483292 
	C41.139542,81.906593 51.200081,80.410263 61.240246,78.787834 
	C61.908142,78.679909 62.421265,77.614143 63.269520,76.315598 
	C81.158653,68.760422 99.541321,64.465828 119.521774,67.960136 
	C119.521774,67.960136 119.964752,67.956001 120.425896,68.221855 
	C120.759315,68.165199 121.092728,68.108543 121.981743,68.545784 
	C123.634354,69.352806 125.286964,70.159821 126.200722,71.158249 
	C122.958061,72.266571 119.715401,73.374886 116.472748,74.483208 
	C116.578033,74.937325 116.683311,75.391441 116.788597,75.845558 
	C125.237846,74.041763 133.687088,72.237976 142.136337,70.434181 
	C141.497803,69.138664 140.950150,68.844589 140.365982,68.714432 
	C139.248291,68.465393 138.109818,68.309601 136.281601,67.757347 
M160.100769,73.050430 
	C151.701279,70.605446 143.862030,73.615913 135.912186,75.785934 
	C143.895844,75.698822 151.858353,75.175987 159.816452,74.592590 
	C160.222458,74.562820 160.590332,74.012505 161.442505,74.266129 
	C169.343338,77.266609 177.944244,79.276848 180.979034,89.160477 
	C181.484085,88.806168 181.989136,88.451859 182.494186,88.097549 
	C181.005951,83.873024 179.517731,79.648499 177.928055,75.136040 
	C178.618408,74.748604 179.824829,74.071548 182.070190,72.811432 
	C176.691147,73.255455 172.543457,73.751930 168.384232,73.883408 
	C165.887070,73.962341 163.371902,73.471680 160.100769,73.050430 
M63.266106,100.031418 
	C60.489368,99.831490 57.672577,99.244606 54.945747,99.526855 
	C51.308201,99.903381 48.813480,102.115044 48.354855,105.959496 
	C47.882008,109.923180 50.559032,111.488091 53.699181,112.754875 
	C55.339703,113.416679 56.829830,114.451279 58.387882,115.317505 
	C58.134666,115.996086 57.881451,116.674667 57.628235,117.353249 
	C54.241531,116.354118 50.854828,115.354988 47.468124,114.355858 
	C47.063141,114.756058 46.658154,115.156258 46.253166,115.556458 
	C46.961288,117.380066 47.208557,119.658875 48.469986,120.935959 
	C51.426765,123.929459 59.924240,123.171906 62.849209,120.045128 
	C66.047821,116.625832 65.116249,111.660789 60.884308,109.698074 
	C60.134842,109.350487 59.223858,109.291473 58.551903,108.849297 
	C57.277821,108.010902 56.122829,106.991531 54.918365,106.047340 
	C55.419701,105.455399 56.160263,104.277046 56.383041,104.367928 
	C57.698826,104.904701 58.833843,105.881378 60.146893,106.428970 
	C61.512619,106.998550 63.073650,107.665817 64.425232,107.463127 
	C65.095047,107.362686 65.998337,105.345245 65.875687,104.303459 
	C65.718239,102.966232 64.635086,101.738007 63.266106,100.031418 
M118.898239,100.461754 
	C117.620834,107.578545 116.343422,114.695328 115.066017,121.812119 
	C115.604660,122.246864 116.143311,122.681610 116.681961,123.116364 
	C118.689117,121.635643 120.696281,120.154930 122.927025,118.509277 
	C124.706512,120.668198 126.659569,124.850784 130.950150,121.452309 
	C131.595764,120.940933 130.272705,117.944092 129.731003,115.517792 
	C134.116135,109.199303 132.992538,106.990273 124.109055,106.194679 
	C124.109055,103.631897 124.109055,101.064400 124.109055,97.420998 
	C122.001877,98.364670 120.533134,99.022430 118.898239,100.461754 
M69.090515,107.459915 
	C68.308495,112.175125 67.526466,116.890335 66.746025,121.595978 
	C70.504128,123.129486 72.274956,122.252747 72.842636,118.694046 
	C73.223701,116.305168 74.033287,113.984642 74.651146,111.633537 
	C75.438370,111.718819 76.225601,111.804100 77.012833,111.889381 
	C77.012833,114.157372 76.487740,116.604500 77.180832,118.636024 
	C77.724396,120.229271 79.598091,121.731644 81.239021,122.417564 
	C81.942902,122.711807 84.562737,120.847572 84.574799,119.940941 
	C84.620560,116.499413 84.277534,112.963242 83.397552,109.643303 
	C83.049866,108.331612 81.050545,107.172058 79.551598,106.541588 
	C78.353424,106.037628 76.774109,106.439827 75.179443,106.439827 
	C75.405922,103.662117 75.612305,101.130859 75.806976,98.743248 
	C72.187691,97.477577 70.401672,98.311348 70.060829,101.692398 
	C69.894417,103.343018 69.494385,104.970100 69.090515,107.459915 
M150.325729,121.916168 
	C150.325729,117.127716 150.325729,112.339264 150.325729,107.359940 
	C147.556244,107.046379 144.659225,106.089951 142.059265,106.612221 
	C139.757706,107.074554 136.696655,108.742928 135.921722,110.665276 
	C134.718704,113.649521 134.941467,117.312767 135.105789,120.661385 
	C135.141281,121.384087 137.475067,122.503517 138.785950,122.556564 
	C142.413559,122.703354 146.060043,122.383423 150.325729,121.916168 
M97.457535,113.786568 
	C97.032707,116.482780 96.607880,119.178986 96.197342,121.784576 
	C100.082474,123.084511 101.858971,122.150826 102.312210,118.578575 
	C102.599915,116.311005 103.425789,114.111725 104.010315,111.881821 
	C104.666313,112.025940 105.322319,112.170059 105.978317,112.314186 
	C105.978317,114.692902 105.388016,117.297142 106.181068,119.372864 
	C106.730835,120.811829 109.092331,121.839287 110.849136,122.361168 
	C111.359940,122.512894 113.271523,120.322334 113.327835,119.147324 
	C113.453362,116.528328 112.970802,113.839569 112.424919,111.244690 
	C112.112648,109.760323 111.313309,107.271866 110.520874,107.185555 
	C106.985138,106.800468 103.269562,106.664459 99.848076,107.444061 
	C98.749573,107.694359 98.354561,111.032158 97.457535,113.786568 
M89.163612,107.436821 
	C88.358086,111.313759 87.344193,115.166626 86.891457,119.084335 
	C86.776237,120.081345 88.236031,121.814583 89.347244,122.248131 
	C90.533012,122.710762 92.320419,122.344719 93.533638,121.727783 
	C94.156464,121.411079 94.343712,119.749565 94.302574,118.712662 
	C94.203644,116.219711 93.381172,113.670280 93.719139,111.265709 
	C94.192184,107.900146 93.435020,106.445648 89.163612,107.436821 
M148.138718,80.949966 
	C147.865051,81.214081 147.591385,81.478203 147.317703,81.742302 
	C147.468430,81.810143 147.620483,81.940086 147.769669,81.936867 
	C153.421646,81.814613 158.613525,83.080421 163.202026,86.604980 
	C163.864609,87.113930 165.254852,86.675529 167.340012,86.675529 
	C161.521255,81.254753 155.557266,79.840950 148.138718,80.949966 
M57.260487,82.446411 
	C55.202240,82.630188 53.143993,82.813957 51.614632,82.950508 
	C57.240768,84.880615 63.050461,86.873688 68.860161,88.866760 
	C69.081055,88.227989 69.301949,87.589226 69.522842,86.950455 
	C65.696968,85.496742 61.871094,84.043037 57.260487,82.446411 
M93.971786,103.653061 
	C94.394463,102.106514 94.817139,100.559967 95.239807,99.013420 
	C94.035271,98.744377 92.493668,97.894516 91.709381,98.349648 
	C90.670876,98.952316 90.224678,100.575623 89.523933,101.760292 
	C90.766449,102.469017 92.008965,103.177742 93.971786,103.653061 
z"/>
<path fill="#A52323" opacity="1.000000" stroke="none" 
	d="
M63.608429,100.247116 
	C64.635086,101.738007 65.718239,102.966232 65.875687,104.303459 
	C65.998337,105.345245 65.095047,107.362686 64.425232,107.463127 
	C63.073650,107.665817 61.512619,106.998550 60.146893,106.428970 
	C58.833843,105.881378 57.698826,104.904701 56.383041,104.367928 
	C56.160263,104.277046 55.419701,105.455399 54.918365,106.047340 
	C56.122829,106.991531 57.277821,108.010902 58.551903,108.849297 
	C59.223858,109.291473 60.134842,109.350487 60.884308,109.698074 
	C65.116249,111.660789 66.047821,116.625832 62.849209,120.045128 
	C59.924240,123.171906 51.426765,123.929459 48.469986,120.935959 
	C47.208557,119.658875 46.961288,117.380066 46.253166,115.556458 
	C46.658154,115.156258 47.063141,114.756058 47.468124,114.355858 
	C50.854828,115.354988 54.241531,116.354118 57.628235,117.353249 
	C57.881451,116.674667 58.134666,115.996086 58.387882,115.317505 
	C56.829830,114.451279 55.339703,113.416679 53.699181,112.754875 
	C50.559032,111.488091 47.882008,109.923180 48.354855,105.959496 
	C48.813480,102.115044 51.308201,99.903381 54.945747,99.526855 
	C57.672577,99.244606 60.489368,99.831490 63.608429,100.247116 
z"/>
<path fill="#A42323" opacity="1.000000" stroke="none" 
	d="
M118.981308,100.070969 
	C120.533134,99.022430 122.001877,98.364670 124.109055,97.420998 
	C124.109055,101.064400 124.109055,103.631897 124.109055,106.194679 
	C132.992538,106.990273 134.116135,109.199303 129.731003,115.517792 
	C130.272705,117.944092 131.595764,120.940933 130.950150,121.452309 
	C126.659569,124.850784 124.706512,120.668198 122.927025,118.509277 
	C120.696281,120.154930 118.689117,121.635643 116.681961,123.116364 
	C116.143311,122.681610 115.604660,122.246864 115.066017,121.812119 
	C116.343422,114.695328 117.620834,107.578545 118.981308,100.070969 
z"/>
<path fill="#A42323" opacity="1.000000" stroke="none" 
	d="
M69.145309,107.033875 
	C69.494385,104.970100 69.894417,103.343018 70.060829,101.692398 
	C70.401672,98.311348 72.187691,97.477577 75.806976,98.743248 
	C75.612305,101.130859 75.405922,103.662117 75.179443,106.439827 
	C76.774109,106.439827 78.353424,106.037628 79.551598,106.541588 
	C81.050545,107.172058 83.049866,108.331612 83.397552,109.643303 
	C84.277534,112.963242 84.620560,116.499413 84.574799,119.940941 
	C84.562737,120.847572 81.942902,122.711807 81.239021,122.417564 
	C79.598091,121.731644 77.724396,120.229271 77.180832,118.636024 
	C76.487740,116.604500 77.012833,114.157372 77.012833,111.889381 
	C76.225601,111.804100 75.438370,111.718819 74.651146,111.633537 
	C74.033287,113.984642 73.223701,116.305168 72.842636,118.694046 
	C72.274956,122.252747 70.504128,123.129486 66.746025,121.595978 
	C67.526466,116.890335 68.308495,112.175125 69.145309,107.033875 
z"/>
<path fill="#A52323" opacity="1.000000" stroke="none" 
	d="
M150.012390,122.082077 
	C146.060043,122.383423 142.413559,122.703354 138.785950,122.556564 
	C137.475067,122.503517 135.141281,121.384087 135.105789,120.661385 
	C134.941467,117.312767 134.718704,113.649521 135.921722,110.665276 
	C136.696655,108.742928 139.757706,107.074554 142.059265,106.612221 
	C144.659225,106.089951 147.556244,107.046379 150.325729,107.359940 
	C150.325729,112.339264 150.325729,117.127716 150.012390,122.082077 
M143.450363,117.004601 
	C143.458588,115.037270 146.793060,112.311554 142.357086,111.492432 
	C141.816345,111.392586 140.405243,113.810364 140.182251,115.188362 
	C140.083023,115.801590 141.933029,116.730240 143.450363,117.004601 
z"/>
<path fill="#A42323" opacity="1.000000" stroke="none" 
	d="
M97.547623,113.371994 
	C98.354561,111.032158 98.749573,107.694359 99.848076,107.444061 
	C103.269562,106.664459 106.985138,106.800468 110.520874,107.185555 
	C111.313309,107.271866 112.112648,109.760323 112.424919,111.244690 
	C112.970802,113.839569 113.453362,116.528328 113.327835,119.147324 
	C113.271523,120.322334 111.359940,122.512894 110.849136,122.361168 
	C109.092331,121.839287 106.730835,120.811829 106.181068,119.372864 
	C105.388016,117.297142 105.978317,114.692902 105.978317,112.314186 
	C105.322319,112.170059 104.666313,112.025940 104.010315,111.881821 
	C103.425789,114.111725 102.599915,116.311005 102.312210,118.578575 
	C101.858971,122.150826 100.082474,123.084511 96.197342,121.784576 
	C96.607880,119.178986 97.032707,116.482780 97.547623,113.371994 
z"/>
<path fill="#757B8A" opacity="1.000000" stroke="none" 
	d="
M60.017410,75.067650 
	C80.730400,64.719292 102.468620,61.585865 125.319054,66.143318 
	C124.067024,67.009689 122.746582,67.530785 121.426147,68.051895 
	C121.092728,68.108543 120.759315,68.165199 120.086578,68.018394 
	C119.545975,67.654602 119.326485,67.671776 119.088791,67.866447 
	C99.541321,64.465828 81.158653,68.760422 62.818489,76.658447 
	C61.584106,76.356743 60.800758,75.712196 60.017410,75.067650 
z"/>
<path fill="#717788" opacity="1.000000" stroke="none" 
	d="
M160.864838,73.237015 
	C163.371902,73.471680 165.887070,73.962341 168.384232,73.883408 
	C172.543457,73.751930 176.691147,73.255455 182.070190,72.811432 
	C179.824829,74.071548 178.618408,74.748604 177.928055,75.136040 
	C179.517731,79.648499 181.005951,83.873024 182.494186,88.097549 
	C181.989136,88.451859 181.484085,88.806168 180.979034,89.160477 
	C177.944244,79.276848 169.343338,77.266609 161.143021,73.877594 
	C160.843536,73.489067 160.864838,73.237015 160.864838,73.237015 
z"/>
<path fill="#A22223" opacity="1.000000" stroke="none" 
	d="
M89.538223,107.272079 
	C93.435020,106.445648 94.192184,107.900146 93.719139,111.265709 
	C93.381172,113.670280 94.203644,116.219711 94.302574,118.712662 
	C94.343712,119.749565 94.156464,121.411079 93.533638,121.727783 
	C92.320419,122.344719 90.533012,122.710762 89.347244,122.248131 
	C88.236031,121.814583 86.776237,120.081345 86.891457,119.084335 
	C87.344193,115.166626 88.358086,111.313759 89.538223,107.272079 
z"/>
<path fill="#8F94A1" opacity="1.000000" stroke="none" 
	d="
M59.624115,75.138428 
	C60.800758,75.712196 61.584106,76.356743 62.686913,76.997589 
	C62.421265,77.614143 61.908142,78.679909 61.240246,78.787834 
	C51.200081,80.410263 41.139542,81.906593 30.749508,83.483292 
	C37.499031,79.880531 44.710941,78.228210 52.071377,76.948524 
	C54.485680,76.528778 56.845879,75.797829 59.624115,75.138428 
z"/>
<path fill="#D1D3D8" opacity="1.000000" stroke="none" 
	d="
M136.979980,68.115105 
	C138.109818,68.309601 139.248291,68.465393 140.365982,68.714432 
	C140.950150,68.844589 141.497803,69.138664 142.136337,70.434181 
	C133.687088,72.237976 125.237846,74.041763 116.788597,75.845558 
	C116.683311,75.391441 116.578033,74.937325 116.472748,74.483208 
	C119.715401,73.374886 122.958061,72.266571 126.948784,71.049240 
	C130.791229,69.998520 133.885605,69.056816 136.979980,68.115105 
z"/>
<path fill="#C3C6CD" opacity="1.000000" stroke="none" 
	d="
M160.482803,73.143723 
	C160.864838,73.237015 160.843536,73.489067 160.909760,73.596809 
	C160.590332,74.012505 160.222458,74.562820 159.816452,74.592590 
	C151.858353,75.175987 143.895844,75.698822 135.912186,75.785934 
	C143.862030,73.615913 151.701279,70.605446 160.482803,73.143723 
z"/>
<path fill="#A12223" opacity="1.000000" stroke="none" 
	d="
M148.483704,80.891403 
	C155.557266,79.840950 161.521255,81.254753 167.340012,86.675529 
	C165.254852,86.675529 163.864609,87.113930 163.202026,86.604980 
	C158.613525,83.080421 153.421646,81.814613 147.769669,81.936867 
	C147.620483,81.940086 147.468430,81.810143 147.317703,81.742310 
	C147.591385,81.478203 147.865051,81.214081 148.483704,80.891403 
z"/>
<path fill="#9A2223" opacity="1.000000" stroke="none" 
	d="
M57.652855,82.517868 
	C61.871094,84.043037 65.696968,85.496742 69.522842,86.950455 
	C69.301949,87.589226 69.081055,88.227989 68.860161,88.866760 
	C63.050461,86.873688 57.240768,84.880615 51.614632,82.950508 
	C53.143993,82.813957 55.202240,82.630188 57.652855,82.517868 
z"/>
<path fill="#ABAFBA" opacity="1.000000" stroke="none" 
	d="
M136.630798,67.936226 
	C133.885605,69.056816 130.791229,69.998520 127.318207,70.953537 
	C125.286964,70.159821 123.634354,69.352806 121.703949,68.298836 
	C122.746582,67.530785 124.067024,67.009689 125.683029,66.301529 
	C129.412933,66.662102 132.847275,67.209724 136.630798,67.936226 
z"/>
<path fill="#A42323" opacity="1.000000" stroke="none" 
	d="
M93.611633,103.769768 
	C92.008965,103.177742 90.766449,102.469017 89.523926,101.760292 
	C90.224678,100.575623 90.670876,98.952316 91.709381,98.349648 
	C92.493668,97.894516 94.035271,98.744377 95.239807,99.013420 
	C94.817139,100.559967 94.394463,102.106514 93.611633,103.769768 
z"/>
<path fill="#ABAFBA" opacity="1.000000" stroke="none" 
	d="
M119.305283,67.913292 
	C119.326485,67.671776 119.545975,67.654602 119.856010,67.885468 
	C119.964752,67.956001 119.521774,67.960136 119.305283,67.913292 
z"/>
<path fill="#281B1F" opacity="1.000000" stroke="none" 
	d="
M143.174332,117.260162 
	C141.933029,116.730240 140.083023,115.801590 140.182251,115.188362 
	C140.405243,113.810364 141.816345,111.392586 142.357086,111.492432 
	C146.793060,112.311554 143.458588,115.037270 143.174332,117.260162 
z"/>
</svg>